<svg width="40" height="40" viewBox="0 0 40 40" fill="none" xmlns="http://www.w3.org/2000/svg">
<path d="M18.999 6.6665C13.3746 6.67199 10.4645 6.77261 8.61832 8.61881C6.77212 10.465 6.6715 13.3751 6.66602 18.9995H13.2174C12.7494 18.415 12.3998 17.7255 12.2091 16.9629C11.4914 14.0922 14.0917 11.4919 16.9624 12.2096C17.725 12.4002 18.4145 12.7499 18.999 13.2179V6.6665Z" fill="#F8F05F"/>
<path d="M6.66602 20.9995C6.6715 26.6239 6.77212 29.534 8.61832 31.3802C10.4645 33.2264 13.3746 33.3271 18.999 33.3325V22.8311C17.9595 24.9074 15.8124 26.3329 13.3324 26.3329C12.7801 26.3329 12.3324 25.8851 12.3324 25.3329C12.3324 24.7806 12.7801 24.3329 13.3324 24.3329C15.3814 24.3329 17.0983 22.9107 17.5497 20.9995H6.66602Z" fill="#F8F05F"/>
<path d="M20.999 33.3325C26.6235 33.3271 29.5335 33.2264 31.3797 31.3802C33.2259 29.534 33.3266 26.6239 33.3321 20.9995H22.4483C22.8998 22.9107 24.6166 24.3329 26.6657 24.3329C27.218 24.3329 27.6657 24.7806 27.6657 25.3329C27.6657 25.8851 27.218 26.3329 26.6657 26.3329C24.1857 26.3329 22.0386 24.9074 20.999 22.8311V33.3325Z" fill="#F8F05F"/>
<path d="M33.3321 18.9995C33.3266 13.3751 33.2259 10.465 31.3797 8.61881C29.5335 6.77261 26.6235 6.67199 20.999 6.6665V13.2179C21.5836 12.7499 22.273 12.4002 23.0357 12.2096C25.9064 11.4919 28.5066 14.0922 27.789 16.9629C27.5983 17.7255 27.2487 18.415 26.7807 18.9995H33.3321Z" fill="#F8F05F"/>
<path d="M16.4773 14.1499C17.9593 14.5204 18.999 15.852 18.999 17.3796V18.9995H17.3791C15.8515 18.9995 14.5199 17.9598 14.1494 16.4778C13.7979 15.0719 15.0714 13.7984 16.4773 14.1499Z" fill="#F8F05F"/>
<path d="M20.999 17.3796V18.9995H22.6189C24.1466 18.9995 25.4782 17.9598 25.8487 16.4778C26.2002 15.0719 24.9267 13.7984 23.5208 14.1499C22.0387 14.5204 20.999 15.852 20.999 17.3796Z" fill="#F8F05F"/>
</svg>
