<svg width="40" height="40" viewBox="0 0 40 40" fill="none" xmlns="http://www.w3.org/2000/svg">
<path fill-rule="evenodd" clip-rule="evenodd" d="M21.4751 33.3332H18.5256C13.9302 33.3332 11.6324 33.3332 10.0657 31.9841C8.49894 30.635 8.174 28.3767 7.52411 23.8601L7.15242 21.277C6.6465 17.7609 6.39353 16.0029 7.11415 14.4998C7.83476 12.9966 9.36858 12.083 12.4362 10.2556L14.2827 9.15566C17.0684 7.49622 18.4612 6.6665 20.0003 6.6665C21.5394 6.6665 22.9323 7.49622 25.718 9.15566L27.5644 10.2556C30.6321 12.083 32.1659 12.9966 32.8865 14.4998C33.6071 16.0029 33.3542 17.7609 32.8482 21.277L32.4765 23.8601C31.8267 28.3767 31.5017 30.635 29.935 31.9841C28.3682 33.3332 26.0705 33.3332 21.4751 33.3332ZM15.1971 24.7374C15.526 24.2937 16.1523 24.2006 16.5959 24.5295C17.5671 25.2493 18.7393 25.6662 20.0005 25.6662C21.2617 25.6662 22.4339 25.2493 23.405 24.5295C23.8487 24.2006 24.4749 24.2937 24.8038 24.7374C25.1327 25.1811 25.0396 25.8074 24.5959 26.1363C23.2994 27.0973 21.7138 27.6662 20.0005 27.6662C18.2872 27.6662 16.7015 27.0973 15.405 26.1363C14.9613 25.8074 14.8682 25.1811 15.1971 24.7374Z" fill="white"/>
</svg>
