<svg width="40" height="40" viewBox="0 0 40 40" fill="none" xmlns="http://www.w3.org/2000/svg">
<path d="M16.6667 6.6665C15.5621 6.6665 14.6667 7.56193 14.6667 8.6665V9.99984C14.6667 11.1044 15.5621 11.9998 16.6667 11.9998H23.3333C24.4379 11.9998 25.3333 11.1044 25.3333 9.99984V8.6665C25.3333 7.56193 24.4379 6.6665 23.3333 6.6665H16.6667Z" fill="white"/>
<path fill-rule="evenodd" clip-rule="evenodd" d="M12.6667 9.38199C10.9895 9.47609 9.93064 9.74336 9.17157 10.5024C8 11.674 8 13.5596 8 17.3309V25.3309C8 29.1021 8 30.9877 9.17157 32.1593C10.3431 33.3309 12.2288 33.3309 16 33.3309H24C27.7712 33.3309 29.6569 33.3309 30.8284 32.1593C32 30.9877 32 29.1021 32 25.3309V17.3309C32 13.5596 32 11.674 30.8284 10.5024C30.0694 9.74336 29.0105 9.47609 27.3333 9.38199V9.99984C27.3333 12.209 25.5425 13.9998 23.3333 13.9998H16.6667C14.4575 13.9998 12.6667 12.209 12.6667 9.99984V9.38199ZM13.3333 16.9998C12.781 16.9998 12.3333 17.4476 12.3333 17.9998C12.3333 18.5521 12.781 18.9998 13.3333 18.9998H14C14.5523 18.9998 15 18.5521 15 17.9998C15 17.4476 14.5523 16.9998 14 16.9998H13.3333ZM18 16.9998C17.4477 16.9998 17 17.4476 17 17.9998C17 18.5521 17.4477 18.9998 18 18.9998H26.6667C27.219 18.9998 27.6667 18.5521 27.6667 17.9998C27.6667 17.4476 27.219 16.9998 26.6667 16.9998H18ZM13.3333 21.6665C12.781 21.6665 12.3333 22.1142 12.3333 22.6665C12.3333 23.2188 12.781 23.6665 13.3333 23.6665H14C14.5523 23.6665 15 23.2188 15 22.6665C15 22.1142 14.5523 21.6665 14 21.6665H13.3333ZM18 21.6665C17.4477 21.6665 17 22.1142 17 22.6665C17 23.2188 17.4477 23.6665 18 23.6665H26.6667C27.219 23.6665 27.6667 23.2188 27.6667 22.6665C27.6667 22.1142 27.219 21.6665 26.6667 21.6665H18ZM13.3333 26.3332C12.781 26.3332 12.3333 26.7809 12.3333 27.3332C12.3333 27.8855 12.781 28.3332 13.3333 28.3332H14C14.5523 28.3332 15 27.8855 15 27.3332C15 26.7809 14.5523 26.3332 14 26.3332H13.3333ZM18 26.3332C17.4477 26.3332 17 26.7809 17 27.3332C17 27.8855 17.4477 28.3332 18 28.3332H26.6667C27.219 28.3332 27.6667 27.8855 27.6667 27.3332C27.6667 26.7809 27.219 26.3332 26.6667 26.3332H18Z" fill="white"/>
</svg>
