<svg width="50" height="50" viewBox="0 0 50 50" fill="none" xmlns="http://www.w3.org/2000/svg">
<path d="M21.6663 41.6667C15.3809 41.6667 12.2383 41.6667 10.2856 39.714C8.33301 37.7614 8.33301 36.2854 8.33301 30" stroke="#F8F05F" stroke-width="2" stroke-linecap="round"/>
<path d="M41.6663 30C41.6663 36.2854 41.6663 37.7614 39.7137 39.714C37.7611 41.6667 34.6184 41.6667 28.333 41.6667" stroke="#F8F05F" stroke-width="2" stroke-linecap="round"/>
<path d="M28.333 8.3335C34.6184 8.3335 37.7611 8.3335 39.7137 10.2861C41.6663 12.2387 41.6663 13.7148 41.6663 20.0002" stroke="#F8F05F" stroke-width="2" stroke-linecap="round"/>
<path d="M21.6663 8.3335C15.3809 8.3335 12.2383 8.3335 10.2856 10.2861C8.33301 12.2387 8.33301 13.7148 8.33301 20.0002" stroke="#F8F05F" stroke-width="2" stroke-linecap="round"/>
<path d="M8.33301 25H41.6663" stroke="#F8F05F" stroke-width="2" stroke-linecap="round"/>
</svg>
