<svg width="40" height="40" viewBox="0 0 40 40" fill="none" xmlns="http://www.w3.org/2000/svg">
<path fill-rule="evenodd" clip-rule="evenodd" d="M33.3327 19.9998C33.3327 27.3636 27.3631 33.3332 19.9993 33.3332C12.6356 33.3332 6.66602 27.3636 6.66602 19.9998C6.66602 12.636 12.6356 6.6665 19.9993 6.6665C27.3631 6.6665 33.3327 12.636 33.3327 19.9998ZM23.9993 15.9998C23.9993 18.209 22.2085 19.9998 19.9993 19.9998C17.7902 19.9998 15.9993 18.209 15.9993 15.9998C15.9993 13.7907 17.7902 11.9998 19.9993 11.9998C22.2085 11.9998 23.9993 13.7907 23.9993 15.9998ZM19.9993 31.3332C22.3781 31.3332 24.5856 30.6003 26.4086 29.3481C27.2137 28.795 27.5578 27.7415 27.0897 26.8841C26.1193 25.1068 24.1197 23.9998 19.9993 23.9998C15.8789 23.9998 13.8793 25.1068 12.9089 26.8841C12.4407 27.7414 12.7848 28.7949 13.59 29.348C15.4129 30.6003 17.6205 31.3332 19.9993 31.3332Z" fill="white"/>
</svg>
