<svg width="14" height="14" viewBox="0 0 14 14" fill="none" xmlns="http://www.w3.org/2000/svg">
<path d="M13.3323 10.0396L7.30379 7.79968C7.12775 7.73412 6.9285 7.79471 6.81884 7.94728L3.00405 13.1937C2.98655 13.2182 2.9479 13.197 2.95912 13.17L5.4268 7.25166C5.50101 7.07308 5.44138 6.87089 5.28049 6.76297L0.0110216 3.20891C-0.0135968 3.19199 0.00698276 3.15418 0.0341896 3.16488L6.06273 5.40482C6.23877 5.47038 6.43802 5.40979 6.54768 5.25722L10.3625 0.0108161C10.38 -0.0137111 10.4186 0.00751824 10.4074 0.0345133L7.93971 5.95284C7.86551 6.13142 7.92514 6.33361 8.08602 6.44153L13.3576 9.99641C13.3822 10.0133 13.3616 10.0511 13.3344 10.0404L13.3323 10.0396Z" fill="#F8F05F"/>
</svg>
